<?xml version="1.0" encoding="UTF-8"?>
<!DOCTYPE svg PUBLIC "-//W3C//DTD SVG 1.1//EN" "http://www.w3.org/Graphics/SVG/1.1/DTD/svg11.dtd">
<!-- Creator: CorelDRAW -->
<svg xmlns="http://www.w3.org/2000/svg" xml:space="preserve" width="1024px" height="1024px" version="1.1" style="shape-rendering:geometricPrecision; text-rendering:geometricPrecision; image-rendering:optimizeQuality; fill-rule:evenodd; clip-rule:evenodd"
viewBox="0 0 1024 1024"
 xmlns:xlink="http://www.w3.org/1999/xlink"
 xmlns:xodm="http://www.corel.com/coreldraw/odm/2003">
 <defs>
  <style type="text/css">
   <![CDATA[
    .fil2 {fill:#FF062D}
    .fil1 {fill:#FF062D}
    .fil3 {fill:#FF072E}
    .fil4 {fill:#FF082E}
    .fil5 {fill:#FF082F}
    .fil6 {fill:#FF092F}
    .fil7 {fill:#FF0930}
    .fil8 {fill:#FF0A30}
    .fil9 {fill:#FF0A31}
    .fil10 {fill:#FF0B31}
    .fil11 {fill:#FF0B32}
    .fil12 {fill:#FF0C32}
    .fil13 {fill:#FF0D33}
    .fil14 {fill:#FF0E33}
    .fil15 {fill:#FF0E34}
    .fil16 {fill:#FF0F34}
    .fil17 {fill:#FF0F35}
    .fil18 {fill:#FF1035}
    .fil19 {fill:#FF1036}
    .fil20 {fill:#FF1136}
    .fil21 {fill:#FF1237}
    .fil22 {fill:#FF1338}
    .fil23 {fill:#FF1439}
    .fil24 {fill:#FF1539}
    .fil25 {fill:#FF153A}
    .fil26 {fill:#FF163A}
    .fil27 {fill:#FF163B}
    .fil28 {fill:#FF173B}
    .fil29 {fill:#FF173C}
    .fil30 {fill:#FF183C}
    .fil31 {fill:#FF193D}
    .fil32 {fill:#FF1A3E}
    .fil33 {fill:#FF1B3E}
    .fil34 {fill:#FF1B3F}
    .fil35 {fill:#FF1C3F}
    .fil36 {fill:#FF1C40}
    .fil37 {fill:#FF1D40}
    .fil38 {fill:#FF1D41}
    .fil39 {fill:#FF1E41}
    .fil40 {fill:#FF1F42}
    .fil41 {fill:#FF2043}
    .fil42 {fill:#FF2144}
    .fil43 {fill:#FF2245}
    .fil44 {fill:#FF2345}
    .fil45 {fill:#FF2446}
    .fil46 {fill:#FF2547}
    .fil47 {fill:#FF2648}
    .fil48 {fill:#FF2749}
    .fil49 {fill:#FF2849}
    .fil50 {fill:#FF284A}
    .fil51 {fill:#FF294A}
    .fil52 {fill:#FF294B}
    .fil53 {fill:#FF2A4B}
    .fil54 {fill:#FF2B4C}
    .fil55 {fill:#FF2C4D}
    .fil56 {fill:#FF2D4E}
    .fil57 {fill:#FF2E4F}
    .fil58 {fill:#FF2F4F}
    .fil59 {fill:#FF2F50}
    .fil60 {fill:#FF3051}
    .fil61 {fill:#FF3151}
    .fil62 {fill:#FF3252}
    .fil63 {fill:#FF3353}
    .fil64 {fill:#FF3454}
    .fil65 {fill:#FF3555}
    .fil66 {fill:#FF3655}
    .fil67 {fill:#FF3756}
    .fil68 {fill:#FF3757}
    .fil69 {fill:#FF3857}
    .fil70 {fill:#FF3958}
    .fil71 {fill:#FF3A59}
    .fil72 {fill:#FF3B5A}
    .fil73 {fill:#FF3C5A}
    .fil74 {fill:#FF3D5B}
    .fil75 {fill:#FF3E5C}
    .fil76 {fill:#FF3F5D}
    .fil77 {fill:#FF405E}
    .fil78 {fill:#FF415F}
    .fil79 {fill:#FF4260}
    .fil80 {fill:#FF4360}
    .fil81 {fill:#FF4461}
    .fil82 {fill:#FF4562}
    .fil83 {fill:#FF4663}
    .fil84 {fill:#FF4864}
    .fil85 {fill:#FF4965}
    .fil86 {fill:#FF4A66}
    .fil87 {fill:#FF4B67}
    .fil88 {fill:#FF4D69}
    .fil89 {fill:#FF4E6A}
    .fil90 {fill:#FF4F6B}
    .fil91 {fill:#FF516C}
    .fil92 {fill:#FF526D}
    .fil93 {fill:#FF536E}
    .fil94 {fill:#FF5570}
    .fil95 {fill:#FF5671}
    .fil96 {fill:#FF5872}
    .fil97 {fill:#FF5A73}
    .fil98 {fill:#FF5B75}
    .fil99 {fill:#FF5D76}
    .fil100 {fill:#FF5F78}
    .fil101 {fill:#FF6079}
    .fil102 {fill:#FF627B}
    .fil103 {fill:#FF647C}
    .fil104 {fill:#FF667E}
    .fil105 {fill:#FF6880}
    .fil106 {fill:#FF6A81}
    .fil107 {fill:#FF6C83}
    .fil108 {fill:#FF6E85}
    .fil109 {fill:#FF7087}
    .fil110 {fill:#FF7389}
    .fil111 {fill:#FF758B}
    .fil112 {fill:#FF778D}
    .fil113 {fill:#FF7A8F}
    .fil114 {fill:#FF7C91}
    .fil115 {fill:#FF7F93}
    .fil116 {fill:#FF8295}
    .fil117 {fill:#FF8498}
    .fil118 {fill:#FF879A}
    .fil119 {fill:#FF8A9C}
    .fil120 {fill:#FF8C9E}
    .fil121 {fill:#FF8FA1}
    .fil122 {fill:#FF92A3}
    .fil123 {fill:#FF94A5}
    .fil124 {fill:#FF96A7}
    .fil125 {fill:#FF99A9}
    .fil126 {fill:#FF9BAB}
    .fil127 {fill:#FF9DAD}
    .fil128 {fill:#FFA0AE}
    .fil0 {fill:white}
   ]]>
  </style>
     <clipPath id="id0">
      <path d="M123.173 306.376c6.401,-12.786 12.663,-24.341 18.736,-34.244 6.073,-9.904 11.957,-18.156 15.367,-21.815 3.409,-3.659 4.343,-2.724 26.766,17.924 22.424,20.648 66.336,61.01 89.694,82.499 23.357,21.489 26.161,24.105 28.403,25.6 2.242,1.495 3.924,1.868 5.793,1.402 1.868,-0.468 3.924,-1.776 5.606,-3.645 1.681,-1.868 2.989,-4.297 3.55,-6.259 0.56,-1.962 0.373,-3.457 -6.914,-12.239 -7.288,-8.783 -21.676,-24.853 -42.979,-48.584 -21.302,-23.732 -49.518,-55.125 -64.653,-71.755 -15.136,-16.631 -17.192,-18.5 -17.192,-20.555 0,-2.055 2.056,-4.298 9.437,-11.212 7.381,-6.914 20.087,-18.499 32.607,-29.057 12.52,-10.557 24.853,-20.087 31.74,-25.269 6.887,-5.182 8.329,-6.015 10.384,-3.96 2.056,2.056 4.725,7.001 20.822,35.073 16.096,28.072 45.62,79.272 61.317,106.18 15.697,26.907 17.565,29.524 19.994,30.645 2.429,1.121 5.419,0.747 7.942,-0.374 2.522,-1.121 4.578,-2.989 5.606,-5.138 1.027,-2.149 1.027,-4.578 -12.894,-34.476 -13.921,-29.898 -41.763,-87.265 -55.965,-116.508 -14.201,-29.244 -14.762,-30.365 -15.229,-31.767 -0.467,-1.401 -0.841,-3.083 4.485,-6.727 5.325,-3.643 16.35,-9.249 33.354,-15.789 17.004,-6.54 39.989,-14.015 60.731,-19.34 20.741,-5.326 39.24,-8.503 56.338,-10.745 17.098,-2.242 32.794,-3.551 50.079,-3.457 17.285,0.093 36.158,1.588 56.152,4.391 19.994,2.803 41.109,6.914 59.609,11.679 18.499,4.765 34.382,10.184 46.528,14.669 12.146,4.484 20.555,8.035 26.922,11.23 6.367,3.195 10.693,6.035 13.258,8.031 2.564,1.997 3.367,3.15 3.073,5.187 -0.295,2.037 -1.686,4.958 -15.556,34.074 -13.869,29.116 -40.217,84.426 -54,113.095 -13.783,28.67 -15.001,30.697 -15.282,32.659 -0.28,1.962 0.378,3.859 1.642,5.274 1.263,1.416 3.131,2.35 5.405,3.159 2.274,0.809 4.953,1.493 7.289,1.025 2.336,-0.467 4.328,-2.085 12.238,-15.6 7.91,-13.515 21.738,-38.929 37.247,-66.584 15.51,-27.656 32.701,-57.553 41.589,-72.961 8.888,-15.408 9.472,-16.327 10.105,-17.212 0.632,-0.886 1.312,-1.74 4.477,-0.253 3.165,1.486 8.814,5.314 18.179,12.927 9.365,7.613 22.445,19.011 33.002,28.448 10.558,9.436 18.593,16.911 22.869,21.225 4.277,4.315 4.794,5.47 4.702,7 -0.094,1.53 -0.797,3.436 -12.921,17.34 -12.125,13.905 -35.671,39.807 -56.772,63.365 -21.101,23.557 -39.758,44.768 -49.918,56.181 -10.16,11.413 -11.824,13.026 -11.998,14.822 -0.175,1.795 1.14,3.772 2.985,5.907 1.845,2.135 4.22,4.427 6.248,5.574 2.029,1.146 3.711,1.146 14.268,-8.01 10.558,-9.156 29.991,-27.468 52.882,-48.864 22.891,-21.396 49.238,-45.875 63.066,-58.394 13.827,-12.52 15.135,-13.081 16.07,-13.454 0.934,-0.374 1.494,-0.561 4.111,3.083 2.616,3.643 7.287,11.118 13.921,21.956 6.633,10.838 15.229,25.039 21.676,37.092 6.447,12.052 10.744,21.956 13.173,27.562 2.429,5.606 2.99,6.914 3.084,8.315 0.093,1.402 -0.281,2.897 -8.596,7.755 -8.316,4.858 -24.573,13.08 -51.107,26.534 -26.534,13.454 -63.345,32.14 -82.779,42.231 -19.434,10.091 -21.489,11.585 -22.704,12.986 -1.215,1.402 -1.588,2.71 -1.308,4.657 0.28,1.946 1.215,4.531 2.523,7.054 1.308,2.522 2.99,4.983 5.512,5.559 2.523,0.576 5.886,-0.732 33.542,-11.944 27.655,-11.212 79.603,-32.327 106.324,-43.351 26.721,-11.025 28.216,-11.96 29.617,-12.333 1.402,-0.374 2.71,-0.187 5.139,8.222 2.429,8.408 5.979,25.039 8.316,43.445 2.335,18.405 3.456,38.587 4.11,49.238 0.654,10.651 0.842,11.772 -1.401,12.987 -2.243,1.214 -6.914,2.522 -34.85,4.858 -27.936,2.336 -79.136,5.699 -105.857,7.474 -26.721,1.775 -28.963,1.962 -30.458,2.336 -1.495,0.374 -2.242,0.934 -2.99,2.523 -0.747,1.588 -1.495,4.204 -1.775,7.568 -0.28,3.363 -0.093,7.474 0.467,10.184 0.561,2.709 1.495,4.017 10.652,4.671 9.156,0.654 26.534,0.654 54.189,0.467 27.655,-0.187 65.588,-0.56 85.768,-0.587 20.18,-0.027 22.608,0.294 24.009,1.695 1.402,1.402 1.777,3.884 0.657,14.842 -1.12,10.958 -3.736,30.392 -6.982,46.206 -3.246,15.814 -7.121,28.008 -9.224,34.669 -2.102,6.662 -2.432,7.791 -28.523,1.227 -26.091,-6.564 -77.945,-20.822 -104.713,-28.324 -26.767,-7.503 -28.449,-8.25 -30.177,-7.16 -1.729,1.089 -3.504,4.017 -4.718,7.567 -1.215,3.551 -1.869,7.724 -1.542,10.465 0.327,2.74 1.635,4.048 22.47,11.803 20.835,7.755 61.197,21.956 86.038,30.715 24.841,8.759 34.161,12.076 38.899,14.544 4.738,2.468 4.896,4.088 0.703,12.521 -4.193,8.432 -12.736,23.677 -20.464,36.624 -7.728,12.948 -14.642,23.599 -18.472,29.018 -3.831,5.418 -4.578,5.605 -13.268,0.654 -8.689,-4.952 -25.319,-15.043 -46.155,-28.683 -20.835,-13.641 -45.874,-30.832 -58.861,-39.615 -12.987,-8.782 -13.921,-9.156 -15.323,-9.343 -1.401,-0.187 -3.269,-0.187 -5.699,1.682 -2.429,1.868 -5.419,5.606 -7.101,8.408 -1.681,2.804 -2.055,4.672 -1.681,6.728 0.374,2.055 1.495,4.297 16.817,17.004 15.323,12.707 44.847,35.877 63.686,50.806 18.839,14.929 26.993,21.616 31.054,25.52 4.06,3.903 4.028,5.022 -1.731,10.834 -5.759,5.813 -17.244,16.319 -28.592,25.964 -11.348,9.643 -22.56,18.426 -28.99,23.637 -6.431,5.212 -8.079,6.851 -10.322,6.571 -2.242,-0.28 -5.078,-2.481 -19.763,-22.08 -14.685,-19.6 -41.219,-56.598 -55.57,-76.36 -14.352,-19.763 -16.52,-22.289 -17.882,-23.906 -1.362,-1.618 -1.918,-2.327 -2.69,-2.827 -0.771,-0.5 -1.759,-0.792 -5.226,0.833 -3.466,1.625 -9.411,5.168 -13.064,7.298 -3.654,2.13 -5.016,2.849 -5.887,4.055 -0.871,1.207 -1.25,2.903 2.807,11.097 4.057,8.194 12.551,22.887 25.455,44.191 12.905,21.303 30.219,49.218 39.366,63.872 9.147,14.655 10.126,16.049 7.873,18.289 -2.253,2.241 -7.739,5.328 -21.226,11.17 -13.487,5.841 -34.977,14.437 -58.708,21.631 -23.731,7.195 -49.705,12.987 -73.156,15.697 -23.451,2.709 -44.38,2.335 -62.786,1.775 -18.405,-0.561 -34.289,-1.308 -54.47,-4.859 -20.181,-3.55 -44.66,-9.903 -63.813,-16.257 -19.153,-6.353 -32.981,-12.706 -42.044,-16.724 -9.062,-4.017 -13.36,-5.699 -16.35,-7.194 -2.989,-1.495 -4.671,-2.803 -5.419,-3.83 -0.748,-1.028 -0.561,-1.776 10.838,-20.929 11.398,-19.153 34.009,-56.712 46.622,-78.201 12.613,-21.489 15.229,-26.908 16.98,-30.355 1.75,-3.446 2.635,-4.92 2.667,-6.247 0.033,-1.327 -0.786,-2.506 -4.031,-4.759 -3.245,-2.253 -8.917,-5.579 -12.564,-7.804 -3.647,-2.226 -5.269,-3.351 -7.045,-2.997 -1.777,0.354 -3.707,2.187 -18.966,22.463 -15.258,20.277 -43.846,58.997 -58.796,79.026 -14.949,20.03 -16.261,21.37 -17.594,22.621 -1.333,1.251 -2.687,2.412 -7.43,-0.3 -4.743,-2.713 -12.873,-9.3 -23.412,-18.499 -10.539,-9.199 -23.484,-21.008 -31.312,-28.272 -7.827,-7.264 -10.535,-9.982 -11.846,-11.915 -1.312,-1.932 -1.227,-3.079 2.095,-6.665 3.322,-3.587 9.881,-9.614 28.389,-24.586 18.509,-14.973 48.967,-38.891 64.864,-51.677 15.897,-12.786 17.232,-14.44 16.409,-17.653 -0.822,-3.214 -3.802,-7.988 -6.019,-11.213 -2.217,-3.226 -3.669,-4.905 -4.996,-5.708 -1.326,-0.804 -2.526,-0.734 -20.691,11.074 -18.165,11.808 -53.295,35.352 -73.569,49.273 -20.275,13.921 -25.693,18.219 -29.492,20.89 -3.799,2.672 -5.978,3.716 -8.67,1.486 -2.693,-2.231 -5.9,-7.738 -12.565,-18.912 -6.665,-11.173 -16.79,-28.013 -22.778,-38.478 -5.989,-10.464 -7.842,-14.554 -9.193,-17.609 -1.352,-3.055 -2.201,-5.076 1.061,-7.423 3.262,-2.347 10.636,-5.019 36.474,-14.173 25.837,-9.154 70.138,-24.788 92.748,-33.384 22.61,-8.596 23.53,-10.152 23.998,-11.927 0.467,-1.776 0.482,-3.771 0.108,-6.2 -0.374,-2.43 -1.136,-5.292 -2.059,-7.22 -0.923,-1.928 -2.006,-2.919 -3.432,-3.456 -1.425,-0.536 -3.193,-0.617 -11.434,1.187 -8.241,1.804 -22.955,5.492 -47.129,12.102 -24.175,6.609 -57.809,16.139 -76.589,21.091 -18.78,4.952 -22.704,5.325 -25.413,5.606 -2.71,0.28 -4.205,0.467 -7.101,-5.886 -2.896,-6.354 -7.194,-19.247 -10.464,-34.756 -3.27,-15.51 -5.513,-33.636 -6.54,-44.006 -1.028,-10.371 -0.841,-12.987 -0.28,-14.762 0.56,-1.775 1.494,-2.71 25.432,-2.89 23.938,-0.181 70.879,0.391 99.075,0.595 28.197,0.204 37.648,0.04 43.141,-0.9 5.493,-0.94 7.027,-2.657 7.666,-5.124 0.639,-2.467 0.383,-5.685 0.204,-9.15 -0.178,-3.465 -0.278,-7.177 -2.392,-9.118 -2.114,-1.941 -6.242,-2.112 -22.695,-3.132 -16.452,-1.02 -45.229,-2.888 -69.053,-4.476 -23.825,-1.589 -42.698,-2.897 -55.405,-4.018 -12.706,-1.121 -19.247,-2.056 -22.797,-2.616 -3.55,-0.561 -4.111,-0.748 -4.485,-4.952 -0.373,-4.205 -0.56,-12.426 -0.042,-21.959 0.519,-9.532 1.743,-20.375 3.489,-32.365 1.747,-11.99 4.015,-25.127 5.832,-34.655 1.817,-9.527 3.183,-15.445 4.334,-18.778 1.149,-3.332 2.084,-4.079 8.344,-1.931 6.26,2.149 17.845,7.195 43.445,18.126 25.6,10.931 65.214,27.748 86.984,36.905 21.769,9.156 25.693,10.651 28.777,11.492 3.083,0.841 5.325,1.028 7.287,0.747 1.962,-0.28 3.644,-1.027 4.859,-3.457 1.214,-2.429 1.962,-6.54 1.868,-9.436 -0.093,-2.896 -1.028,-4.578 -10.558,-9.623 -9.53,-5.046 -27.655,-13.455 -52.414,-25.694 -24.759,-12.239 -56.152,-28.309 -75.118,-38.12 -18.966,-9.81 -25.507,-13.36 -28.59,-15.789 -3.083,-2.429 -2.71,-3.738 0.747,-11.399 3.457,-7.661 9.997,-21.676 16.398,-34.46zm469.044 63.127c-45.09,0 -81.642,36.553 -81.642,81.642 0,45.09 36.552,81.643 81.642,81.643 45.09,0 81.643,-36.553 81.643,-81.643 0,-45.089 -36.553,-81.642 -81.643,-81.642z"/>
     </clipPath>
 </defs>
 <g id="Слой_x0020_1">
  <metadata id="CorelCorpID_0Corel-Layer"/>
  <g id="_2060326461952">
   <path class="fil0" d="M505.808 959.978c-253.004,0 -458.104,-205.1 -458.104,-458.104 0,-253.004 205.1,-458.104 458.104,-458.104 253.004,0 458.104,205.1 458.104,458.104 0,253.004 -205.1,458.104 -458.104,458.104zm0 -947.958c-270.539,0 -489.854,219.315 -489.854,489.854 0,270.539 219.315,489.854 489.854,489.854 270.539,0 489.854,-219.315 489.854,-489.854 0,-270.539 -219.315,-489.854 -489.854,-489.854z"/>
   <g>
    <g style="clip-path:url(#id0)">
     <polygon class="fil1" points="-99.673,571.251 -95.038,565.42 580.586,1102.42 575.952,1108.251 "/>
     <polygon id="_1" class="fil2" points="-96.53,567.297 -92.055,561.666 583.57,1098.667 579.095,1104.297 "/>
     <polygon id="_2" class="fil2" points="-93.547,563.543 -89.071,557.913 586.553,1094.913 582.078,1100.543 "/>
     <polygon id="_3" class="fil3" points="-90.563,559.79 -86.088,554.159 589.537,1091.159 585.061,1096.789 "/>
     <polygon id="_4" class="fil3" points="-87.58,556.036 -83.105,550.406 592.52,1087.406 588.045,1093.036 "/>
     <polygon id="_5" class="fil3" points="-84.597,552.282 -80.121,546.652 595.503,1083.652 591.028,1089.282 "/>
     <polygon id="_6" class="fil3" points="-81.613,548.529 -77.138,542.899 598.487,1079.898 594.012,1085.529 "/>
     <polygon id="_7" class="fil3" points="-78.629,544.775 -74.155,539.145 601.47,1076.145 596.995,1081.775 "/>
     <polygon id="_8" class="fil4" points="-75.646,541.022 -71.171,535.391 604.453,1072.391 599.979,1078.022 "/>
     <polygon id="_9" class="fil5" points="-72.663,537.268 -68.188,531.638 607.437,1068.638 602.962,1074.268 "/>
     <polygon id="_10" class="fil5" points="-69.679,533.514 -65.204,527.884 610.421,1064.884 605.945,1070.515 "/>
     <polygon id="_11" class="fil5" points="-66.696,529.761 -62.22,524.13 613.404,1061.13 608.929,1066.761 "/>
     <polygon id="_12" class="fil5" points="-63.713,526.007 -59.237,520.377 616.388,1057.377 611.912,1063.007 "/>
     <polygon id="_13" class="fil6" points="-60.729,522.254 -56.254,516.623 619.371,1053.623 614.895,1059.254 "/>
     <polygon id="_14" class="fil6" points="-57.746,518.5 -53.271,512.87 622.354,1049.87 617.879,1055.5 "/>
     <polygon id="_15" class="fil7" points="-54.762,514.747 -50.287,509.116 625.337,1046.116 620.862,1051.746 "/>
     <polygon id="_16" class="fil7" points="-51.779,510.993 -47.304,505.363 628.321,1042.363 623.846,1047.993 "/>
     <polygon id="_17" class="fil8" points="-48.795,507.239 -44.32,501.609 631.304,1038.609 626.83,1044.239 "/>
     <polygon id="_18" class="fil8" points="-45.812,503.486 -41.337,497.855 634.288,1034.855 629.813,1040.486 "/>
     <polygon id="_19" class="fil8" points="-42.829,499.732 -38.353,494.102 637.271,1031.102 632.796,1036.732 "/>
     <polygon id="_20" class="fil9" points="-39.845,495.978 -35.37,490.348 640.255,1027.348 635.78,1032.979 "/>
     <polygon id="_21" class="fil10" points="-36.862,492.225 -32.386,486.595 643.238,1023.594 638.763,1029.225 "/>
     <polygon id="_22" class="fil10" points="-33.878,488.471 -29.403,482.841 646.222,1019.841 641.746,1025.471 "/>
     <polygon id="_23" class="fil10" points="-30.895,484.718 -26.42,479.087 649.205,1016.087 644.73,1021.718 "/>
     <polygon id="_24" class="fil10" points="-27.911,480.964 -23.436,475.334 652.188,1012.334 647.713,1017.964 "/>
     <polygon id="_25" class="fil11" points="-24.928,477.211 -20.453,471.58 655.172,1008.58 650.697,1014.211 "/>
     <polygon id="_26" class="fil12" points="-21.944,473.457 -17.469,467.826 658.155,1004.827 653.68,1010.457 "/>
     <polygon id="_27" class="fil12" points="-18.961,469.704 -14.486,464.073 661.139,1001.073 656.664,1006.703 "/>
     <polygon id="_28" class="fil12" points="-15.978,465.95 -11.502,460.319 664.122,997.32 659.647,1002.95 "/>
     <polygon id="_29" class="fil12" points="-12.994,462.196 -8.519,456.566 667.106,993.566 662.63,999.196 "/>
     <polygon id="_30" class="fil13" points="-10.011,458.443 -5.536,452.812 670.089,989.812 665.614,995.442 "/>
     <polygon id="_31" class="fil13" points="-7.027,454.689 -2.552,449.059 673.072,986.059 668.597,991.689 "/>
     <polygon id="_32" class="fil13" points="-4.044,450.935 0.431,445.305 676.056,982.305 671.581,987.935 "/>
     <polygon id="_33" class="fil14" points="-1.06,447.182 3.415,441.552 679.039,978.551 674.564,984.182 "/>
     <polygon id="_34" class="fil15" points="1.923,443.428 6.398,437.798 682.023,974.798 677.548,980.428 "/>
     <polygon id="_35" class="fil15" points="4.906,439.675 9.382,434.044 685.006,971.044 680.531,976.675 "/>
     <polygon id="_36" class="fil15" points="7.89,435.921 12.365,430.291 687.99,967.291 683.514,972.921 "/>
     <polygon id="_37" class="fil16" points="10.873,432.168 15.348,426.537 690.973,963.537 686.498,969.168 "/>
     <polygon id="_38" class="fil17" points="13.857,428.414 18.332,422.783 693.956,959.784 689.481,965.414 "/>
     <polygon id="_39" class="fil17" points="16.84,424.66 21.315,419.03 696.94,956.03 692.465,961.66 "/>
     <polygon id="_40" class="fil17" points="19.824,420.907 24.299,415.276 699.923,952.276 695.448,957.907 "/>
     <polygon id="_41" class="fil18" points="22.807,417.153 27.282,411.523 702.907,948.523 698.432,954.153 "/>
     <polygon id="_42" class="fil18" points="25.79,413.4 30.266,407.769 705.89,944.769 701.415,950.399 "/>
     <polygon id="_43" class="fil19" points="28.774,409.646 33.249,404.016 708.874,941.016 704.398,946.646 "/>
     <polygon id="_44" class="fil20" points="31.757,405.892 36.233,400.262 711.857,937.262 707.382,942.892 "/>
     <polygon id="_45" class="fil20" points="34.741,402.139 39.216,396.509 714.841,933.508 710.365,939.139 "/>
     <polygon id="_46" class="fil20" points="37.724,398.385 42.199,392.755 717.824,929.755 713.349,935.385 "/>
     <polygon id="_47" class="fil21" points="40.708,394.631 45.183,389.001 720.807,926.001 716.332,931.632 "/>
     <polygon id="_48" class="fil21" points="43.691,390.878 48.166,385.248 723.791,922.247 719.316,927.878 "/>
     <polygon id="_49" class="fil21" points="46.675,387.124 51.15,381.494 726.774,918.494 722.299,924.125 "/>
     <polygon id="_50" class="fil22" points="49.658,383.371 54.133,377.74 729.758,914.74 725.283,920.371 "/>
     <polygon id="_51" class="fil22" points="52.641,379.617 57.117,373.987 732.741,910.987 728.266,916.617 "/>
     <polygon id="_52" class="fil22" points="55.625,375.864 60.1,370.233 735.725,907.233 731.249,912.864 "/>
     <polygon id="_53" class="fil22" points="58.608,372.11 63.083,366.48 738.708,903.48 734.233,909.11 "/>
     <polygon id="_54" class="fil23" points="61.592,368.357 66.067,362.726 741.691,899.726 737.216,905.356 "/>
     <polygon id="_55" class="fil23" points="64.575,364.603 69.05,358.972 744.675,895.973 740.2,901.603 "/>
     <polygon id="_56" class="fil24" points="67.559,360.849 72.034,355.219 747.658,892.219 743.183,897.849 "/>
     <polygon id="_57" class="fil25" points="70.542,357.096 75.017,351.465 750.642,888.465 746.167,894.096 "/>
     <polygon id="_58" class="fil25" points="73.525,353.342 78.001,347.712 753.625,884.712 749.15,890.342 "/>
     <polygon id="_59" class="fil26" points="76.509,349.588 80.984,343.958 756.609,880.958 752.133,886.588 "/>
     <polygon id="_60" class="fil26" points="79.492,345.835 83.967,340.205 759.592,877.204 755.117,882.835 "/>
     <polygon id="_61" class="fil27" points="82.476,342.081 86.951,336.451 762.575,873.451 758.1,879.081 "/>
     <polygon id="_62" class="fil28" points="85.459,338.328 89.934,332.697 765.559,869.697 761.084,875.328 "/>
     <polygon id="_63" class="fil28" points="88.443,334.574 92.918,328.944 768.542,865.944 764.067,871.574 "/>
     <polygon id="_64" class="fil29" points="91.426,330.821 95.901,325.19 771.526,862.19 767.051,867.821 "/>
     <polygon id="_65" class="fil30" points="94.409,327.067 98.885,321.436 774.509,858.437 770.034,864.067 "/>
     <polygon id="_66" class="fil30" points="97.393,323.313 101.868,317.683 777.493,854.683 773.017,860.313 "/>
     <polygon id="_67" class="fil31" points="100.376,319.56 104.851,313.929 780.476,850.929 776.001,856.56 "/>
     <polygon id="_68" class="fil31" points="103.359,315.806 107.835,310.176 783.46,847.176 778.984,852.806 "/>
     <polygon id="_69" class="fil31" points="106.343,312.053 110.818,306.422 786.443,843.422 781.968,849.052 "/>
     <polygon id="_70" class="fil32" points="109.327,308.299 113.801,302.669 789.426,839.669 784.951,845.299 "/>
     <polygon id="_71" class="fil32" points="112.31,304.545 116.785,298.915 792.409,835.915 787.935,841.545 "/>
     <polygon id="_72" class="fil33" points="115.294,300.792 119.768,295.162 795.393,832.161 790.918,837.792 "/>
     <polygon id="_73" class="fil34" points="118.277,297.038 122.752,291.408 798.377,828.408 793.902,834.038 "/>
     <polygon id="_74" class="fil34" points="121.26,293.284 125.736,287.654 801.36,824.654 796.885,830.285 "/>
     <polygon id="_75" class="fil35" points="124.243,289.531 128.719,283.901 804.344,820.9 799.868,826.531 "/>
     <polygon id="_76" class="fil36" points="127.227,285.777 131.702,280.147 807.327,817.147 802.851,822.778 "/>
     <polygon id="_77" class="fil37" points="130.21,282.024 134.686,276.393 810.31,813.393 805.835,819.024 "/>
     <polygon id="_78" class="fil38" points="133.194,278.27 137.669,272.64 813.294,809.64 808.818,815.27 "/>
     <polygon id="_79" class="fil39" points="136.177,274.517 140.652,268.886 816.277,805.886 811.802,811.517 "/>
     <polygon id="_80" class="fil39" points="139.161,270.763 143.636,265.133 819.26,802.133 814.786,807.763 "/>
     <polygon id="_81" class="fil40" points="142.144,267.01 146.619,261.379 822.244,798.379 817.769,804.009 "/>
     <polygon id="_82" class="fil40" points="145.128,263.256 149.603,257.625 825.227,794.626 820.752,800.256 "/>
     <polygon id="_83" class="fil40" points="148.111,259.502 152.586,253.872 828.211,790.872 823.736,796.502 "/>
     <polygon id="_84" class="fil41" points="151.094,255.749 155.57,250.118 831.194,787.118 826.719,792.749 "/>
     <polygon id="_85" class="fil41" points="154.078,251.995 158.553,246.365 834.178,783.365 829.702,788.995 "/>
     <polygon id="_86" class="fil42" points="157.061,248.241 161.536,242.611 837.161,779.611 832.686,785.241 "/>
     <polygon id="_87" class="fil42" points="160.045,244.488 164.52,238.858 840.144,775.857 835.669,781.488 "/>
     <polygon id="_88" class="fil43" points="163.028,240.734 167.503,235.104 843.128,772.104 838.653,777.734 "/>
     <polygon id="_89" class="fil43" points="166.012,236.981 170.487,231.35 846.111,768.35 841.636,773.981 "/>
     <polygon id="_90" class="fil44" points="168.995,233.227 173.47,227.597 849.095,764.597 844.62,770.227 "/>
     <polygon id="_91" class="fil45" points="171.978,229.474 176.454,223.843 852.078,760.843 847.603,766.474 "/>
     <polygon id="_92" class="fil45" points="174.962,225.72 179.437,220.089 855.062,757.09 850.586,762.72 "/>
     <polygon id="_93" class="fil46" points="177.945,221.967 182.42,216.336 858.045,753.336 853.57,758.966 "/>
     <polygon id="_94" class="fil46" points="180.929,218.213 185.404,212.582 861.028,749.583 856.553,755.213 "/>
     <polygon id="_95" class="fil47" points="183.912,214.459 188.387,208.829 864.012,745.829 859.537,751.459 "/>
     <polygon id="_96" class="fil47" points="186.896,210.706 191.371,205.075 866.995,742.075 862.52,747.705 "/>
     <polygon id="_97" class="fil48" points="189.879,206.952 194.354,201.322 869.979,738.322 865.504,743.952 "/>
     <polygon id="_98" class="fil49" points="192.862,203.198 197.338,197.568 872.962,734.568 868.487,740.198 "/>
     <polygon id="_99" class="fil50" points="195.846,199.445 200.321,193.815 875.946,730.814 871.47,736.445 "/>
     <polygon id="_100" class="fil51" points="198.829,195.691 203.304,190.061 878.929,727.061 874.454,732.691 "/>
     <polygon id="_101" class="fil52" points="201.813,191.938 206.288,186.307 881.913,723.307 877.437,728.938 "/>
     <polygon id="_102" class="fil53" points="204.796,188.184 209.271,182.554 884.896,719.554 880.421,725.184 "/>
     <polygon id="_103" class="fil54" points="207.78,184.43 212.255,178.8 887.879,715.8 883.404,721.431 "/>
     <polygon id="_104" class="fil54" points="210.763,180.677 215.238,175.046 890.863,712.046 886.388,717.677 "/>
     <polygon id="_105" class="fil55" points="213.747,176.923 218.222,171.293 893.846,708.293 889.371,713.923 "/>
     <polygon id="_106" class="fil56" points="216.73,173.17 221.205,167.539 896.83,704.539 892.355,710.17 "/>
     <polygon id="_107" class="fil56" points="219.713,169.416 224.189,163.786 899.813,700.786 895.338,706.416 "/>
     <polygon id="_108" class="fil57" points="222.697,165.663 227.172,160.032 902.797,697.032 898.321,702.662 "/>
     <polygon id="_109" class="fil58" points="225.68,161.909 230.155,156.279 905.78,693.279 901.305,698.909 "/>
     <polygon id="_110" class="fil59" points="228.664,158.155 233.139,152.525 908.763,689.525 904.288,695.155 "/>
     <polygon id="_111" class="fil60" points="231.647,154.402 236.122,148.771 911.747,685.771 907.272,691.402 "/>
     <polygon id="_112" class="fil61" points="234.631,150.648 239.106,145.018 914.73,682.018 910.255,687.648 "/>
     <polygon id="_113" class="fil62" points="237.614,146.894 242.089,141.264 917.714,678.264 913.239,683.895 "/>
     <polygon id="_114" class="fil62" points="240.597,143.141 245.073,137.511 920.697,674.51 916.222,680.141 "/>
     <polygon id="_115" class="fil63" points="243.581,139.387 248.056,133.757 923.681,670.757 919.205,676.387 "/>
     <polygon id="_116" class="fil64" points="246.564,135.634 251.039,130.003 926.664,667.003 922.189,672.634 "/>
     <polygon id="_117" class="fil65" points="249.548,131.88 254.023,126.25 929.647,663.25 925.172,668.88 "/>
     <polygon id="_118" class="fil66" points="252.531,128.127 257.006,122.496 932.631,659.496 928.156,665.127 "/>
     <polygon id="_119" class="fil67" points="255.515,124.373 259.99,118.742 935.614,655.743 931.139,661.373 "/>
     <polygon id="_120" class="fil68" points="258.498,120.62 262.973,114.989 938.598,651.989 934.123,657.619 "/>
     <polygon id="_121" class="fil69" points="261.481,116.866 265.957,111.235 941.581,648.236 937.106,653.866 "/>
     <polygon id="_122" class="fil70" points="264.465,113.112 268.94,107.482 944.565,644.482 940.089,650.112 "/>
     <polygon id="_123" class="fil71" points="267.448,109.359 271.923,103.728 947.548,640.728 943.073,646.358 "/>
     <polygon id="_124" class="fil72" points="270.432,105.605 274.907,99.975 950.531,636.975 946.056,642.605 "/>
     <polygon id="_125" class="fil73" points="273.415,101.851 277.89,96.221 953.515,633.221 949.04,638.851 "/>
     <polygon id="_126" class="fil74" points="276.399,98.098 280.874,92.468 956.498,629.467 952.023,635.098 "/>
     <polygon id="_127" class="fil75" points="279.382,94.344 283.857,88.714 959.482,625.714 955.007,631.344 "/>
     <polygon id="_128" class="fil76" points="282.366,90.591 286.841,84.96 962.465,621.96 957.99,627.591 "/>
     <polygon id="_129" class="fil77" points="285.349,86.837 289.824,81.207 965.449,618.207 960.974,623.837 "/>
     <polygon id="_130" class="fil78" points="288.332,83.083 292.808,77.453 968.432,614.453 963.957,620.084 "/>
     <polygon id="_131" class="fil79" points="291.316,79.33 295.791,73.699 971.416,610.699 966.94,616.33 "/>
     <polygon id="_132" class="fil80" points="294.299,75.576 298.774,69.946 974.399,606.946 969.924,612.576 "/>
     <polygon id="_133" class="fil81" points="297.283,71.823 301.757,66.192 977.382,603.192 972.907,608.823 "/>
     <polygon id="_134" class="fil82" points="300.266,68.069 304.741,62.439 980.366,599.439 975.891,605.069 "/>
     <polygon id="_135" class="fil83" points="303.25,64.316 307.724,58.685 983.349,595.685 978.874,601.315 "/>
     <polygon id="_136" class="fil84" points="306.233,60.562 310.708,54.932 986.333,591.932 981.858,597.562 "/>
     <polygon id="_137" class="fil85" points="309.216,56.808 313.692,51.178 989.316,588.178 984.841,593.808 "/>
     <polygon id="_138" class="fil86" points="312.2,53.055 316.675,47.425 992.3,584.424 987.824,590.055 "/>
     <polygon id="_139" class="fil87" points="315.183,49.301 319.658,43.671 995.283,580.671 990.808,586.301 "/>
     <polygon id="_140" class="fil88" points="318.166,45.547 322.642,39.917 998.266,576.917 993.791,582.548 "/>
     <polygon id="_141" class="fil89" points="321.15,41.794 325.625,36.164 1001.25,573.163 996.775,578.794 "/>
     <polygon id="_142" class="fil90" points="324.133,38.04 328.608,32.41 1004.233,569.41 999.758,575.041 "/>
     <polygon id="_143" class="fil91" points="327.117,34.287 331.592,28.657 1007.216,565.656 1002.742,571.287 "/>
     <polygon id="_144" class="fil92" points="330.1,30.533 334.575,24.903 1010.2,561.903 1005.725,567.533 "/>
     <polygon id="_145" class="fil93" points="333.084,26.78 337.559,21.149 1013.183,558.149 1008.708,563.78 "/>
     <polygon id="_146" class="fil94" points="336.067,23.026 340.542,17.396 1016.167,554.396 1011.692,560.026 "/>
     <polygon id="_147" class="fil95" points="339.05,19.273 343.526,13.642 1019.15,550.642 1014.675,556.273 "/>
     <polygon id="_148" class="fil96" points="342.034,15.519 346.509,9.888 1022.134,546.889 1017.658,552.519 "/>
     <polygon id="_149" class="fil97" points="345.017,11.766 349.492,6.135 1025.117,543.135 1020.642,548.765 "/>
     <polygon id="_150" class="fil98" points="348.001,8.012 352.476,2.381 1028.1,539.382 1023.625,545.012 "/>
     <polygon id="_151" class="fil99" points="350.984,4.258 355.459,-1.372 1031.084,535.628 1026.609,541.258 "/>
     <polygon id="_152" class="fil100" points="353.968,0.505 358.443,-5.126 1034.067,531.874 1029.592,537.504 "/>
     <polygon id="_153" class="fil101" points="356.951,-3.249 361.426,-8.879 1037.051,528.121 1032.576,533.751 "/>
     <polygon id="_154" class="fil102" points="359.934,-7.003 364.41,-12.633 1040.034,524.367 1035.559,529.997 "/>
     <polygon id="_155" class="fil103" points="362.918,-10.756 367.393,-16.386 1043.018,520.613 1038.542,526.244 "/>
     <polygon id="_156" class="fil104" points="365.901,-14.51 370.376,-20.14 1046.001,516.86 1041.526,522.49 "/>
     <polygon id="_157" class="fil105" points="368.885,-18.263 373.36,-23.894 1048.984,513.106 1044.509,518.737 "/>
     <polygon id="_158" class="fil106" points="371.868,-22.017 376.343,-27.647 1051.968,509.353 1047.493,514.983 "/>
     <polygon id="_159" class="fil107" points="374.852,-25.771 379.327,-31.401 1054.951,505.599 1050.476,511.23 "/>
     <polygon id="_160" class="fil108" points="377.835,-29.524 382.31,-35.155 1057.935,501.845 1053.46,507.476 "/>
     <polygon id="_161" class="fil109" points="380.819,-33.278 385.294,-38.908 1060.918,498.092 1056.443,503.722 "/>
     <polygon id="_162" class="fil110" points="383.802,-37.031 388.277,-42.662 1063.902,494.338 1059.427,499.969 "/>
     <polygon id="_163" class="fil111" points="386.785,-40.785 391.261,-46.415 1066.885,490.585 1062.41,496.215 "/>
     <polygon id="_164" class="fil112" points="389.769,-44.538 394.244,-50.169 1069.869,486.831 1065.393,492.461 "/>
     <polygon id="_165" class="fil113" points="392.752,-48.292 397.227,-53.922 1072.852,483.078 1068.377,488.708 "/>
     <polygon id="_166" class="fil114" points="395.736,-52.046 400.211,-57.676 1075.835,479.324 1071.36,484.954 "/>
     <polygon id="_167" class="fil115" points="398.719,-55.799 403.194,-61.43 1078.819,475.57 1074.344,481.201 "/>
     <polygon id="_168" class="fil116" points="401.703,-59.553 406.178,-65.183 1081.802,471.817 1077.327,477.447 "/>
     <polygon id="_169" class="fil117" points="404.686,-63.307 409.161,-68.937 1084.786,468.063 1080.311,473.694 "/>
     <polygon id="_170" class="fil118" points="407.669,-67.06 412.145,-72.69 1087.769,464.309 1083.294,469.94 "/>
     <polygon id="_171" class="fil119" points="410.653,-70.814 415.128,-76.444 1090.753,460.556 1086.277,466.186 "/>
     <polygon id="_172" class="fil120" points="413.636,-74.567 418.111,-80.198 1093.736,456.802 1089.261,462.433 "/>
     <polygon id="_173" class="fil121" points="416.62,-78.321 421.095,-83.951 1096.719,453.049 1092.244,458.679 "/>
     <polygon id="_174" class="fil122" points="419.603,-82.074 424.078,-87.705 1099.703,449.295 1095.228,454.926 "/>
     <polygon id="_175" class="fil123" points="422.587,-85.828 427.062,-91.459 1102.686,445.542 1098.211,451.172 "/>
     <polygon id="_176" class="fil124" points="425.57,-89.581 430.045,-95.212 1105.67,441.788 1101.195,447.418 "/>
     <polygon id="_177" class="fil125" points="428.553,-93.335 433.029,-98.966 1108.653,438.035 1104.178,443.665 "/>
     <polygon id="_178" class="fil126" points="431.537,-97.089 436.012,-102.719 1111.637,434.281 1107.161,439.911 "/>
     <polygon id="_179" class="fil127" points="434.52,-100.842 438.995,-106.473 1114.62,430.527 1110.145,436.157 "/>
     <polygon id="_180" class="fil128" points="437.504,-104.596 436.665,-103.541 1112.29,433.459 1113.128,432.404 "/>
    </g>
   </g>
  </g>
 </g>
</svg>
