<?xml version="1.0" standalone="no"?>
<!DOCTYPE svg PUBLIC "-//W3C//DTD SVG 20010904//EN"
 "http://www.w3.org/TR/2001/REC-SVG-20010904/DTD/svg10.dtd">
<svg version="1.0" xmlns="http://www.w3.org/2000/svg"
 width="1024.000000pt" height="1024.000000pt" viewBox="0 0 1024.000000 1024.000000"
 preserveAspectRatio="xMidYMid meet">

<g transform="translate(0.000000,1024.000000) scale(0.100000,-0.100000)"
fill="#000000" stroke="none">
<path d="M4845 9884 c-1213 -77 -2317 -570 -3158 -1407 -778 -776 -1247 -1760
-1374 -2882 -24 -210 -24 -730 0 -940 102 -901 417 -1698 948 -2395 743 -977
1839 -1632 3068 -1835 289 -48 434 -59 786 -59 352 0 497 11 786 59 1920 317
3450 1723 3904 3587 96 395 129 679 129 1113 0 434 -33 718 -129 1113 -329
1349 -1231 2486 -2480 3122 -530 270 -1105 439 -1715 505 -138 15 -634 27
-765 19z m633 -1280 c35 -24 28 -59 -23 -109 l-45 -43 2 -314 3 -313 1378 -3
1377 -2 0 -675 0 -675 -330 0 -330 0 -2 403 -3 402 -730 0 -730 0 -3 -614 c-1
-426 1 -626 9 -655 15 -55 73 -110 132 -125 31 -7 174 -11 430 -11 449 0 448
0 538 89 63 63 110 153 138 261 10 39 22 71 27 71 22 1 527 -217 532 -230 8
-21 -53 -196 -105 -301 -103 -212 -236 -339 -433 -414 -54 -20 -72 -21 -720
-24 -469 -2 -685 1 -733 9 -41 6 -101 27 -147 50 -119 60 -182 140 -222 285
-22 78 -22 91 -25 834 -2 415 -3 761 -3 768 0 9 -95 12 -444 12 -244 0 -450
-2 -458 -5 -10 -4 -12 -33 -10 -131 5 -171 -14 -439 -38 -549 -73 -330 -236
-609 -506 -865 -195 -185 -432 -344 -744 -499 -209 -104 -546 -243 -594 -245
-28 -1 -34 7 -167 259 -76 143 -137 264 -136 269 2 5 90 39 197 76 770 264
1220 610 1358 1040 40 126 46 179 47 415 l0 230 -660 0 -660 0 -2 -485 -2
-485 -331 -3 -330 -2 0 760 0 760 1380 0 1380 0 0 400 0 400 358 0 c307 0 361
-2 380 -16z m2060 -4206 l2 -318 -1095 0 -1095 0 2 -617 3 -618 1468 -3 1467
-2 0 -320 0 -320 -3190 0 -3190 0 0 323 0 322 1430 -3 1430 -2 0 620 0 620
-1088 0 c-599 0 -1091 2 -1093 4 -2 2 -3 146 -1 320 l3 316 2472 -2 2472 -3 3
-317z"/>
</g>
</svg>
