<?xml version="1.0" encoding="UTF-8"?>
<svg id="_Слой_1" data-name="Слой 1" xmlns="http://www.w3.org/2000/svg" viewBox="0 0 809.48 809.48">
  <defs>
    <style>
      .cls-1 {
        fill: #e51d39;
      }

      .cls-2 {
        fill: none;
        stroke: #fff;
        stroke-miterlimit: 10;
        stroke-width: 30px;
      }
    </style>
  </defs>
  <circle id="_Кольцо" data-name="Кольцо" class="cls-2" cx="404.74" cy="404.74" r="389.74"/>
  <path id="_Фигура_внутри" data-name="Фигура внутри" class="cls-1" d="M573.53,558.74c-2.62-2.24-3.49-5.92-2.12-9.09,1.64-3.79,4.23-8.77,7.71-12.35s9.04-3.91,12.98-.9l95.49,73.06c2,1.53,4.87,1.11,6.32-.94,14.94-21.16,27.63-44.05,37.69-68.31.96-2.31-.21-4.97-2.56-5.85l-112.76-42.31c-3.23-1.21-5.3-4.37-5.1-7.81.24-4.12.98-9.69,3.02-14.24s7.16-6.76,11.89-5.28l114.45,35.91c2.4.75,4.96-.63,5.62-3.05,6.69-24.68,10.78-50.45,11.96-77,.11-2.5-1.9-4.6-4.4-4.62l-116.67-1.16c-5.72-.06-10.65-4.04-11.9-9.62-.72-3.21-1.22-6.84-1-10.25.33-5.04,4.49-8.98,9.53-9.21l119.38-5.38c2.51-.11,4.44-2.28,4.24-4.78-2.15-26.39-7.21-51.98-14.85-76.44-.75-2.39-3.35-3.68-5.72-2.84l-109.98,38.8c-5.39,1.9-11.39-.15-14.48-4.97-1.77-2.77-3.49-6.01-4.45-9.29-1.41-4.85,1.14-9.98,5.81-11.92l110.31-45.87c2.32-.96,3.4-3.66,2.35-5.94-10.93-23.77-24.42-46.13-40.12-66.72-1.52-2-4.41-2.31-6.35-.72l-90.02,74.02c-4.42,3.63-10.76,3.76-15.3.28-2.61-2-5.34-4.45-7.35-7.21-2.99-4.07-2.34-9.77,1.38-13.18l87.95-80.81c1.85-1.7,1.94-4.59.18-6.38-18.23-18.49-38.48-35-60.4-49.14-2.11-1.36-4.94-.67-6.22,1.49l-59.36,100.5c-2.91,4.93-8.82,7.21-14.28,5.5-3.14-.98-6.54-2.36-9.38-4.26-4.2-2.81-5.53-8.37-3.21-12.86l55.13-106.27c1.15-2.22.25-4.97-2.01-6.05-44.63-21.3-94.45-33.53-147.14-34.28-57.72-.82-112.41,12.23-160.89,36.06-2.23,1.1-3.1,3.82-1.96,6.03l54.22,104.52c2.32,4.48.99,10.05-3.21,12.85-2.84,1.9-6.24,3.28-9.38,4.26-5.46,1.71-11.38-.57-14.29-5.5l-58.09-98.36c-1.29-2.18-4.15-2.86-6.26-1.47-21.51,14.22-41.39,30.73-59.27,49.19-1.73,1.79-1.63,4.67.2,6.35l85.56,78.62c3.72,3.42,4.37,9.11,1.38,13.18-2.02,2.75-4.74,5.21-7.35,7.21-4.55,3.47-10.88,3.35-15.3-.28l-87.23-71.73c-1.95-1.6-4.85-1.28-6.37.74-15.3,20.4-28.44,42.51-39.1,66-1.03,2.28.05,4.96,2.36,5.92l106.51,44.29c4.66,1.94,7.22,7.07,5.81,11.92-.96,3.28-2.67,6.52-4.45,9.29-3.08,4.82-9.08,6.87-14.48,4.97l-105.89-37.36c-2.37-.84-4.98.45-5.72,2.86-7.4,24.06-12.3,49.22-14.41,75.19-.2,2.5,1.73,4.66,4.24,4.78l114.86,5.17c5.04.23,9.2,4.17,9.53,9.21.22,3.41-.28,7.04-1,10.25-1.25,5.58-6.18,9.56-11.9,9.62l-112.15,1.11c-2.51.02-4.51,2.11-4.4,4.62,1.14,26.06,5.11,51.4,11.61,75.72.65,2.43,3.22,3.82,5.62,3.07l110.28-34.6c4.73-1.48,9.86.76,11.89,5.28s2.78,10.11,3.02,14.24c.2,3.44-1.87,6.6-5.1,7.81l-108.84,40.84c-2.34.88-3.51,3.52-2.57,5.83,9.8,23.92,22.15,46.54,36.71,67.51,1.44,2.08,4.34,2.51,6.34.97l92.54-70.8c3.93-3.01,9.52-2.66,12.98.9s6.07,8.56,7.71,12.35c1.37,3.16.5,6.85-2.12,9.09l-89.15,76.33c-1.89,1.62-2.1,4.49-.43,6.34,17.25,19.15,36.57,36.42,57.61,51.44,2.06,1.47,4.95.89,6.31-1.24l63.56-99.46c2.67-4.17,8.04-5.75,12.5-3.6s8.63,5.96,11.46,8.97c2.37,2.51,2.81,6.26,1.12,9.26l-58.52,103.72c-1.22,2.16-.44,4.92,1.75,6.09,48.33,25.95,103.43,41.02,162.07,41.85,60.81.87,118.26-13.67,168.62-39.98,2.22-1.16,3.02-3.94,1.79-6.12l-59.56-105.56c-1.69-3-1.25-6.76,1.12-9.26,2.84-3,6.97-6.79,11.46-8.97s9.83-.58,12.5,3.6l64.96,101.65c1.36,2.12,4.21,2.71,6.27,1.27,21.44-14.95,41.15-32.22,58.77-51.45,1.69-1.85,1.5-4.74-.41-6.37l-91.7-78.51ZM480.7,427.82c-40.95,1.31-74.41-32.16-73.11-73.11,1.18-37.08,31.39-67.29,68.47-68.47,40.95-1.31,74.41,32.16,73.11,73.11-1.18,37.08-31.39,67.29-68.47,68.47Z"/>
</svg>